<?xml version="1.0" encoding="UTF-8" standalone="no"?>
<!DOCTYPE svg PUBLIC "-//W3C//DTD SVG 1.1//EN" "http://www.w3.org/Graphics/SVG/1.1/DTD/svg11.dtd">
<svg width="100%" height="100%" viewBox="0 0 5000 5000" version="1.1" xmlns="http://www.w3.org/2000/svg" xmlns:xlink="http://www.w3.org/1999/xlink" xml:space="preserve" style="fill-rule:evenodd;clip-rule:evenodd;stroke-linecap:round;stroke-linejoin:round;stroke-miterlimit:1.41421;">
    <rect x="-251" y="-92" width="6242" height="5527" style="fill:black;"/>
    <g transform="matrix(1.26812,0,0,1.26812,-563.748,-285.104)">
        <g>
            <g transform="matrix(1,0,0,1,579,-735)">
                <path d="M1908,2397L1902,2552C1865.43,2608.8 1824.66,2596.18 1782,2552L1782,2397C1822.14,2481.67 1864.03,2486.63 1908,2397Z" style="fill:none;stroke-width:3.29px;stroke:rgb(255,204,0);"/>
            </g>
            <g transform="matrix(1,0,0,1,565,-711)">
                <path d="M1796,2529C1735.92,2557.21 1732.61,2582.21 1820,2623C1850.58,2578.26 1879.54,2571.29 1906,2623C2004.76,2575.61 1980.5,2555.34 1924,2529" style="fill:none;stroke-width:3.29px;stroke:rgb(255,204,0);"/>
            </g>
            <g>
                <g transform="matrix(1,0,0,1,565,-711)">
                    <ellipse cx="1865" cy="2634.5" rx="107" ry="9.5" style="fill:none;stroke-width:3.29px;stroke:rgb(255,204,0);"/>
                </g>
                <g transform="matrix(1,0,0,1,565,-687)">
                    <ellipse cx="1865" cy="2634.5" rx="107" ry="9.5" style="fill:none;stroke-width:3.29px;stroke:rgb(255,204,0);"/>
                </g>
                <g transform="matrix(1,0,0,1,565,-661)">
                    <ellipse cx="1865" cy="2634.5" rx="107" ry="9.5" style="fill:none;stroke-width:3.29px;stroke:rgb(255,204,0);"/>
                </g>
                <g transform="matrix(1,0,0,1,565,-642)">
                    <ellipse cx="1865" cy="2634.5" rx="107" ry="9.5" style="fill:none;stroke-width:3.29px;stroke:rgb(255,204,0);"/>
                </g>
                <g transform="matrix(1,0,0,1,565,-622)">
                    <ellipse cx="1865" cy="2634.5" rx="107" ry="9.5" style="fill:none;stroke-width:3.29px;stroke:rgb(255,204,0);"/>
                </g>
                <g transform="matrix(1,0,0,1,565,-602)">
                    <ellipse cx="1865" cy="2634.5" rx="107" ry="9.5" style="fill:none;stroke-width:3.29px;stroke:rgb(255,204,0);"/>
                </g>
                <g transform="matrix(1,0,0,1,565,-582)">
                    <ellipse cx="1865" cy="2634.5" rx="107" ry="9.5" style="fill:none;stroke-width:3.29px;stroke:rgb(255,204,0);"/>
                </g>
                <g transform="matrix(1,0,0,1,565,-560)">
                    <ellipse cx="1865" cy="2634.5" rx="107" ry="9.5" style="fill:none;stroke-width:3.29px;stroke:rgb(255,204,0);"/>
                </g>
                <g transform="matrix(1,0,0,1,565,-538)">
                    <ellipse cx="1865" cy="2634.5" rx="107" ry="9.5" style="fill:none;stroke-width:3.29px;stroke:rgb(255,204,0);"/>
                </g>
                <g transform="matrix(1,0,0,1,565,-538)">
                    <ellipse cx="1865" cy="2634.5" rx="107" ry="9.5" style="fill:none;stroke-width:3.29px;stroke:rgb(255,204,0);"/>
                </g>
                <g transform="matrix(1,0,0,1,565,-518)">
                    <ellipse cx="1865" cy="2634.5" rx="107" ry="9.5" style="fill:none;stroke-width:3.29px;stroke:rgb(255,204,0);"/>
                </g>
                <g transform="matrix(1,0,0,1,565,-497)">
                    <ellipse cx="1865" cy="2634.5" rx="107" ry="9.5" style="fill:none;stroke-width:3.29px;stroke:rgb(255,204,0);"/>
                </g>
                <g transform="matrix(1,0,0,1,565,-473)">
                    <ellipse cx="1865" cy="2634.5" rx="107" ry="9.5" style="fill:none;stroke-width:3.29px;stroke:rgb(255,204,0);"/>
                </g>
                <g transform="matrix(1,0,0,1,565,-450)">
                    <ellipse cx="1865" cy="2634.5" rx="107" ry="9.5" style="fill:none;stroke-width:3.29px;stroke:rgb(255,204,0);"/>
                </g>
                <g transform="matrix(1,0,0,1,565,-431)">
                    <ellipse cx="1865" cy="2634.5" rx="107" ry="9.5" style="fill:none;stroke-width:3.29px;stroke:rgb(255,204,0);"/>
                </g>
                <g transform="matrix(1,0,0,1,565,-411)">
                    <ellipse cx="1865" cy="2634.5" rx="107" ry="9.5" style="fill:none;stroke-width:3.29px;stroke:rgb(255,204,0);"/>
                </g>
            </g>
        </g>
        <g>
            <g transform="matrix(1,0,0,1,565,-711)">
                <path d="M1768,2952L1471,3152L1314,3618L1444,3135L1746,2938L1768,2952Z" style="fill:none;stroke-width:3.29px;stroke:rgb(255,204,0);"/>
            </g>
            <g transform="matrix(1,0,0,1,565,-711)">
                <path d="M1714,2900L1409,2941L1049,3322L1403,2919L1716,2882L1714,2900Z" style="fill:none;stroke-width:3.29px;stroke:rgb(255,204,0);"/>
            </g>
            <g transform="matrix(1,0,0,1,565,-711)">
                <path d="M1728,2860L1450,2686L1144,3053L1462,2659L1741,2847L1728,2860Z" style="fill:none;stroke-width:3.29px;stroke:rgb(255,204,0);"/>
            </g>
            <g transform="matrix(1,0,0,1,565,-711)">
                <path d="M1756,2791L1688,2662L1473,2811L1696,2640L1760,2762L1756,2791Z" style="fill:none;stroke-width:3.29px;stroke:rgb(255,204,0);"/>
            </g>
            <g transform="matrix(-1,0,0,1,4297,-711)">
                <path d="M1768,2952L1471,3152L1314,3618L1444,3135L1746,2938L1768,2952Z" style="fill:none;stroke-width:3.29px;stroke:rgb(255,204,0);"/>
            </g>
            <g transform="matrix(-1,0,0,1,4297,-711)">
                <path d="M1714,2900L1409,2941L1049,3322L1403,2919L1716,2882L1714,2900Z" style="fill:none;stroke-width:3.29px;stroke:rgb(255,204,0);"/>
            </g>
            <g transform="matrix(-1,0,0,1,4297,-711)">
                <path d="M1728,2860L1450,2686L1144,3053L1462,2659L1741,2847L1728,2860Z" style="fill:none;stroke-width:3.29px;stroke:rgb(255,204,0);"/>
            </g>
            <g transform="matrix(-1,0,0,1,4297,-711)">
                <path d="M1756,2791L1688,2662L1473,2811L1696,2640L1760,2762L1756,2791Z" style="fill:none;stroke-width:3.29px;stroke:rgb(255,204,0);"/>
            </g>
            <g transform="matrix(1,0,0,1,565,-711)">
                <path d="M1846,2965L1687,3168L1706,3669L1709,3175L1868,2966L1846,2965Z" style="fill:none;stroke-width:3.29px;stroke:rgb(255,204,0);"/>
            </g>
            <g transform="matrix(-1,0,0,1,4329,-711)">
                <path d="M1846,2965L1687,3168L1706,3669L1709,3175L1868,2966L1846,2965Z" style="fill:none;stroke-width:3.29px;stroke:rgb(255,204,0);"/>
            </g>
        </g>
        <g transform="matrix(0.178725,0,0,0.178725,1845.56,382.444)">
            <g transform="matrix(14.5944,0,0,14.5944,-4534.73,326.769)">
                <path d="M442,139L486,66L529,140L486,165L442,139L486,121L529,140" style="fill:none;stroke-width:1.26px;stroke:rgb(255,204,0);"/>
            </g>
            <g transform="matrix(14.5944,0,0,14.5944,-4534.73,326.769)">
                <path d="M485,209L485,173L443,148L485,209L529,148L485,173" style="fill:none;stroke-width:1.26px;stroke:rgb(255,204,0);"/>
            </g>
            <g transform="matrix(1,0,0,1,1,467)">
                <path d="M2558,1626L2559,2265" style="fill:none;stroke-width:18.38px;stroke:rgb(255,204,0);"/>
            </g>
            <g transform="matrix(1,0,0,1.24257,0,-716.413)">
                <path d="M2558,1626L2559,2265" style="fill:none;stroke-width:16.3px;stroke:rgb(255,204,0);"/>
            </g>
        </g>
        <g transform="matrix(0.178725,0,0,0.178725,1969.56,1104.44)">
            <g transform="matrix(14.5944,0,0,14.5944,-4534.73,326.769)">
                <path d="M442,139L486,66L529,140L486,165L442,139L486,121L529,140" style="fill:none;stroke-width:1.26px;stroke:rgb(255,204,0);"/>
            </g>
            <g transform="matrix(14.5944,0,0,14.5944,-4534.73,326.769)">
                <path d="M485,209L485,173L443,148L485,209L529,148L485,173" style="fill:none;stroke-width:1.26px;stroke:rgb(255,204,0);"/>
            </g>
            <g transform="matrix(1,0,0,1,1,467)">
                <path d="M2558,1626L2559,2265" style="fill:none;stroke-width:18.38px;stroke:rgb(255,204,0);"/>
            </g>
            <g transform="matrix(1,0,0,1.24257,0,-716.413)">
                <path d="M2558,1626L2559,2265" style="fill:none;stroke-width:16.3px;stroke:rgb(255,204,0);"/>
            </g>
        </g>
        <g transform="matrix(0.178725,0,0,0.178725,1718.56,613.444)">
            <g transform="matrix(14.5944,0,0,14.5944,-4534.73,326.769)">
                <path d="M442,139L486,66L529,140L486,165L442,139L486,121L529,140" style="fill:none;stroke-width:1.26px;stroke:rgb(255,204,0);"/>
            </g>
            <g transform="matrix(14.5944,0,0,14.5944,-4534.73,326.769)">
                <path d="M485,209L485,173L443,148L485,209L529,148L485,173" style="fill:none;stroke-width:1.26px;stroke:rgb(255,204,0);"/>
            </g>
            <g transform="matrix(1,0,0,1,1,467)">
                <path d="M2558,1626L2559,2265" style="fill:none;stroke-width:18.38px;stroke:rgb(255,204,0);"/>
            </g>
            <g transform="matrix(1,0,0,1.24257,0,-716.413)">
                <path d="M2558,1626L2559,2265" style="fill:none;stroke-width:16.3px;stroke:rgb(255,204,0);"/>
            </g>
        </g>
        <g transform="matrix(0.178725,0,0,0.178725,2215.56,623.444)">
            <g transform="matrix(14.5944,0,0,14.5944,-4534.73,326.769)">
                <path d="M442,139L486,66L529,140L486,165L442,139L486,121L529,140" style="fill:none;stroke-width:1.26px;stroke:rgb(255,204,0);"/>
            </g>
            <g transform="matrix(14.5944,0,0,14.5944,-4534.73,326.769)">
                <path d="M485,209L485,173L443,148L485,209L529,148L485,173" style="fill:none;stroke-width:1.26px;stroke:rgb(255,204,0);"/>
            </g>
            <g transform="matrix(1,0,0,1,1,467)">
                <path d="M2558,1626L2559,2265" style="fill:none;stroke-width:18.38px;stroke:rgb(255,204,0);"/>
            </g>
            <g transform="matrix(1,0,0,1.24257,0,-716.413)">
                <path d="M2558,1626L2559,2265" style="fill:none;stroke-width:16.3px;stroke:rgb(255,204,0);"/>
            </g>
        </g>
        <g transform="matrix(0.178725,0,0,0.178725,1972.56,608.444)">
            <g transform="matrix(14.5944,0,0,14.5944,-4534.73,326.769)">
                <path d="M442,139L486,66L529,140L486,165L442,139L486,121L529,140" style="fill:none;stroke-width:1.26px;stroke:rgb(255,204,0);"/>
            </g>
            <g transform="matrix(14.5944,0,0,14.5944,-4534.73,326.769)">
                <path d="M485,209L485,173L443,148L485,209L529,148L485,173" style="fill:none;stroke-width:1.26px;stroke:rgb(255,204,0);"/>
            </g>
            <g transform="matrix(1,0,0,1,1,467)">
                <path d="M2558,1626L2559,2265" style="fill:none;stroke-width:18.38px;stroke:rgb(255,204,0);"/>
            </g>
            <g transform="matrix(1,0,0,1.24257,0,-716.413)">
                <path d="M2558,1626L2559,2265" style="fill:none;stroke-width:16.3px;stroke:rgb(255,204,0);"/>
            </g>
        </g>
        <g transform="matrix(0.178725,0,0,0.178725,2099.56,382.444)">
            <g transform="matrix(14.5944,0,0,14.5944,-4534.73,326.769)">
                <path d="M442,139L486,66L529,140L486,165L442,139L486,121L529,140" style="fill:none;stroke-width:1.26px;stroke:rgb(255,204,0);"/>
            </g>
            <g transform="matrix(14.5944,0,0,14.5944,-4534.73,326.769)">
                <path d="M485,209L485,173L443,148L485,209L529,148L485,173" style="fill:none;stroke-width:1.26px;stroke:rgb(255,204,0);"/>
            </g>
            <g transform="matrix(1,0,0,1,1,467)">
                <path d="M2558,1626L2559,2265" style="fill:none;stroke-width:18.38px;stroke:rgb(255,204,0);"/>
            </g>
            <g transform="matrix(1,0,0,1.24257,0,-716.413)">
                <path d="M2558,1626L2559,2265" style="fill:none;stroke-width:16.3px;stroke:rgb(255,204,0);"/>
            </g>
        </g>
        <g transform="matrix(0.178725,0,0,0.178725,2086.56,856.444)">
            <g transform="matrix(14.5944,0,0,14.5944,-4534.73,326.769)">
                <path d="M442,139L486,66L529,140L486,165L442,139L486,121L529,140" style="fill:none;stroke-width:1.26px;stroke:rgb(255,204,0);"/>
            </g>
            <g transform="matrix(14.5944,0,0,14.5944,-4534.73,326.769)">
                <path d="M485,209L485,173L443,148L485,209L529,148L485,173" style="fill:none;stroke-width:1.26px;stroke:rgb(255,204,0);"/>
            </g>
            <g transform="matrix(1,0,0,1,1,467)">
                <path d="M2558,1626L2559,2265" style="fill:none;stroke-width:18.38px;stroke:rgb(255,204,0);"/>
            </g>
            <g transform="matrix(1,0,0,1.24257,0,-716.413)">
                <path d="M2558,1626L2559,2265" style="fill:none;stroke-width:16.3px;stroke:rgb(255,204,0);"/>
            </g>
        </g>
        <g transform="matrix(0.178725,0,0,0.178725,1975.56,161.444)">
            <g transform="matrix(14.5944,0,0,14.5944,-4534.73,326.769)">
                <path d="M442,139L486,66L529,140L486,165L442,139L486,121L529,140" style="fill:none;stroke-width:1.26px;stroke:rgb(255,204,0);"/>
            </g>
            <g transform="matrix(14.5944,0,0,14.5944,-4534.73,326.769)">
                <path d="M485,209L485,173L443,148L485,209L529,148L485,173" style="fill:none;stroke-width:1.26px;stroke:rgb(255,204,0);"/>
            </g>
            <g transform="matrix(1,0,0,1,1,467)">
                <path d="M2558,1626L2559,2265" style="fill:none;stroke-width:18.38px;stroke:rgb(255,204,0);"/>
            </g>
            <g transform="matrix(1,0,0,1.24257,0,-716.413)">
                <path d="M2558,1626L2559,2265" style="fill:none;stroke-width:16.3px;stroke:rgb(255,204,0);"/>
            </g>
        </g>
        <g transform="matrix(0.178725,0,0,0.178725,1848.56,857.444)">
            <g transform="matrix(14.5944,0,0,14.5944,-4534.73,326.769)">
                <path d="M442,139L486,66L529,140L486,165L442,139L486,121L529,140" style="fill:none;stroke-width:1.26px;stroke:rgb(255,204,0);"/>
            </g>
            <g transform="matrix(14.5944,0,0,14.5944,-4534.73,326.769)">
                <path d="M485,209L485,173L443,148L485,209L529,148L485,173" style="fill:none;stroke-width:1.26px;stroke:rgb(255,204,0);"/>
            </g>
            <g transform="matrix(1,0,0,1,1,467)">
                <path d="M2558,1626L2559,2265" style="fill:none;stroke-width:18.38px;stroke:rgb(255,204,0);"/>
            </g>
            <g transform="matrix(1,0,0,1.24257,0,-716.413)">
                <path d="M2558,1626L2559,2265" style="fill:none;stroke-width:16.3px;stroke:rgb(255,204,0);"/>
            </g>
        </g>
    </g>
    <g transform="matrix(1.26812,0,0,1.26812,-556.748,-285.104)">
        <g>
            <g transform="matrix(1,0,0,1,579,-735)">
                <path d="M1908,2397L1902,2552C1865.43,2608.8 1824.66,2596.18 1782,2552L1782,2397C1822.14,2481.67 1864.03,2486.63 1908,2397Z" style="fill:none;stroke-width:3.29px;stroke:rgb(2,226,172);"/>
            </g>
            <g transform="matrix(1,0,0,1,565,-711)">
                <path d="M1796,2529C1735.92,2557.21 1732.61,2582.21 1820,2623C1850.58,2578.26 1879.54,2571.29 1906,2623C2004.76,2575.61 1980.5,2555.34 1924,2529" style="fill:none;stroke-width:3.29px;stroke:rgb(2,226,172);"/>
            </g>
            <g>
                <g transform="matrix(1,0,0,1,565,-711)">
                    <ellipse cx="1865" cy="2634.5" rx="107" ry="9.5" style="fill:none;stroke-width:3.29px;stroke:rgb(2,226,172);"/>
                </g>
                <g transform="matrix(1,0,0,1,565,-687)">
                    <ellipse cx="1865" cy="2634.5" rx="107" ry="9.5" style="fill:none;stroke-width:3.29px;stroke:rgb(2,226,172);"/>
                </g>
                <g transform="matrix(1,0,0,1,565,-661)">
                    <ellipse cx="1865" cy="2634.5" rx="107" ry="9.5" style="fill:none;stroke-width:3.29px;stroke:rgb(2,226,172);"/>
                </g>
                <g transform="matrix(1,0,0,1,565,-642)">
                    <ellipse cx="1865" cy="2634.5" rx="107" ry="9.5" style="fill:none;stroke-width:3.29px;stroke:rgb(2,226,172);"/>
                </g>
                <g transform="matrix(1,0,0,1,565,-622)">
                    <ellipse cx="1865" cy="2634.5" rx="107" ry="9.5" style="fill:none;stroke-width:3.29px;stroke:rgb(2,226,172);"/>
                </g>
                <g transform="matrix(1,0,0,1,565,-602)">
                    <ellipse cx="1865" cy="2634.5" rx="107" ry="9.5" style="fill:none;stroke-width:3.29px;stroke:rgb(2,226,172);"/>
                </g>
                <g transform="matrix(1,0,0,1,565,-582)">
                    <ellipse cx="1865" cy="2634.5" rx="107" ry="9.5" style="fill:none;stroke-width:3.29px;stroke:rgb(2,226,172);"/>
                </g>
                <g transform="matrix(1,0,0,1,565,-560)">
                    <ellipse cx="1865" cy="2634.5" rx="107" ry="9.5" style="fill:none;stroke-width:3.29px;stroke:rgb(2,226,172);"/>
                </g>
                <g transform="matrix(1,0,0,1,565,-538)">
                    <ellipse cx="1865" cy="2634.5" rx="107" ry="9.5" style="fill:none;stroke-width:3.29px;stroke:rgb(2,226,172);"/>
                </g>
                <g transform="matrix(1,0,0,1,565,-538)">
                    <ellipse cx="1865" cy="2634.5" rx="107" ry="9.5" style="fill:none;stroke-width:3.29px;stroke:rgb(2,226,172);"/>
                </g>
                <g transform="matrix(1,0,0,1,565,-518)">
                    <ellipse cx="1865" cy="2634.5" rx="107" ry="9.5" style="fill:none;stroke-width:3.29px;stroke:rgb(2,226,172);"/>
                </g>
                <g transform="matrix(1,0,0,1,565,-497)">
                    <ellipse cx="1865" cy="2634.5" rx="107" ry="9.5" style="fill:none;stroke-width:3.29px;stroke:rgb(2,226,172);"/>
                </g>
                <g transform="matrix(1,0,0,1,565,-473)">
                    <ellipse cx="1865" cy="2634.5" rx="107" ry="9.5" style="fill:none;stroke-width:3.29px;stroke:rgb(2,226,172);"/>
                </g>
                <g transform="matrix(1,0,0,1,565,-450)">
                    <ellipse cx="1865" cy="2634.5" rx="107" ry="9.5" style="fill:none;stroke-width:3.29px;stroke:rgb(2,226,172);"/>
                </g>
                <g transform="matrix(1,0,0,1,565,-431)">
                    <ellipse cx="1865" cy="2634.5" rx="107" ry="9.5" style="fill:none;stroke-width:3.29px;stroke:rgb(2,226,172);"/>
                </g>
                <g transform="matrix(1,0,0,1,565,-411)">
                    <ellipse cx="1865" cy="2634.5" rx="107" ry="9.5" style="fill:none;stroke-width:3.29px;stroke:rgb(2,226,172);"/>
                </g>
            </g>
        </g>
        <g>
            <g transform="matrix(1,0,0,1,565,-711)">
                <path d="M1768,2952L1471,3152L1314,3618L1444,3135L1746,2938L1768,2952Z" style="fill:none;stroke-width:3.29px;stroke:rgb(2,226,172);"/>
            </g>
            <g transform="matrix(1,0,0,1,565,-711)">
                <path d="M1714,2900L1409,2941L1049,3322L1403,2919L1716,2882L1714,2900Z" style="fill:none;stroke-width:3.29px;stroke:rgb(2,226,172);"/>
            </g>
            <g transform="matrix(1,0,0,1,565,-711)">
                <path d="M1728,2860L1450,2686L1144,3053L1462,2659L1741,2847L1728,2860Z" style="fill:none;stroke-width:3.29px;stroke:rgb(2,226,172);"/>
            </g>
            <g transform="matrix(1,0,0,1,565,-711)">
                <path d="M1756,2791L1688,2662L1473,2811L1696,2640L1760,2762L1756,2791Z" style="fill:none;stroke-width:3.29px;stroke:rgb(2,226,172);"/>
            </g>
            <g transform="matrix(-1,0,0,1,4297,-711)">
                <path d="M1768,2952L1471,3152L1314,3618L1444,3135L1746,2938L1768,2952Z" style="fill:none;stroke-width:3.29px;stroke:rgb(2,226,172);"/>
            </g>
            <g transform="matrix(-1,0,0,1,4297,-711)">
                <path d="M1714,2900L1409,2941L1049,3322L1403,2919L1716,2882L1714,2900Z" style="fill:none;stroke-width:3.29px;stroke:rgb(2,226,172);"/>
            </g>
            <g transform="matrix(-1,0,0,1,4297,-711)">
                <path d="M1728,2860L1450,2686L1144,3053L1462,2659L1741,2847L1728,2860Z" style="fill:none;stroke-width:3.29px;stroke:rgb(2,226,172);"/>
            </g>
            <g transform="matrix(-1,0,0,1,4297,-711)">
                <path d="M1756,2791L1688,2662L1473,2811L1696,2640L1760,2762L1756,2791Z" style="fill:none;stroke-width:3.29px;stroke:rgb(2,226,172);"/>
            </g>
            <g transform="matrix(1,0,0,1,565,-711)">
                <path d="M1846,2965L1687,3168L1706,3669L1709,3175L1868,2966L1846,2965Z" style="fill:none;stroke-width:3.29px;stroke:rgb(2,226,172);"/>
            </g>
            <g transform="matrix(-1,0,0,1,4329,-711)">
                <path d="M1846,2965L1687,3168L1706,3669L1709,3175L1868,2966L1846,2965Z" style="fill:none;stroke-width:3.29px;stroke:rgb(2,226,172);"/>
            </g>
        </g>
        <g transform="matrix(0.178725,0,0,0.178725,1845.56,382.444)">
            <g transform="matrix(14.5944,0,0,14.5944,-4534.73,326.769)">
                <path d="M442,139L486,66L529,140L486,165L442,139L486,121L529,140" style="fill:none;stroke-width:1.26px;stroke:rgb(2,226,172);"/>
            </g>
            <g transform="matrix(14.5944,0,0,14.5944,-4534.73,326.769)">
                <path d="M485,209L485,173L443,148L485,209L529,148L485,173" style="fill:none;stroke-width:1.26px;stroke:rgb(2,226,172);"/>
            </g>
            <g transform="matrix(1,0,0,1,1,467)">
                <path d="M2558,1626L2559,2265" style="fill:none;stroke-width:18.38px;stroke:rgb(2,226,172);"/>
            </g>
            <g transform="matrix(1,0,0,1.24257,0,-716.413)">
                <path d="M2558,1626L2559,2265" style="fill:none;stroke-width:16.3px;stroke:rgb(2,226,172);"/>
            </g>
        </g>
        <g transform="matrix(0.178725,0,0,0.178725,1969.56,1104.44)">
            <g transform="matrix(14.5944,0,0,14.5944,-4534.73,326.769)">
                <path d="M442,139L486,66L529,140L486,165L442,139L486,121L529,140" style="fill:none;stroke-width:1.26px;stroke:rgb(2,226,172);"/>
            </g>
            <g transform="matrix(14.5944,0,0,14.5944,-4534.73,326.769)">
                <path d="M485,209L485,173L443,148L485,209L529,148L485,173" style="fill:none;stroke-width:1.26px;stroke:rgb(2,226,172);"/>
            </g>
            <g transform="matrix(1,0,0,1,1,467)">
                <path d="M2558,1626L2559,2265" style="fill:none;stroke-width:18.38px;stroke:rgb(2,226,172);"/>
            </g>
            <g transform="matrix(1,0,0,1.24257,0,-716.413)">
                <path d="M2558,1626L2559,2265" style="fill:none;stroke-width:16.3px;stroke:rgb(2,226,172);"/>
            </g>
        </g>
        <g transform="matrix(0.178725,0,0,0.178725,1718.56,613.444)">
            <g transform="matrix(14.5944,0,0,14.5944,-4534.73,326.769)">
                <path d="M442,139L486,66L529,140L486,165L442,139L486,121L529,140" style="fill:none;stroke-width:1.26px;stroke:rgb(2,226,172);"/>
            </g>
            <g transform="matrix(14.5944,0,0,14.5944,-4534.73,326.769)">
                <path d="M485,209L485,173L443,148L485,209L529,148L485,173" style="fill:none;stroke-width:1.26px;stroke:rgb(2,226,172);"/>
            </g>
            <g transform="matrix(1,0,0,1,1,467)">
                <path d="M2558,1626L2559,2265" style="fill:none;stroke-width:18.38px;stroke:rgb(2,226,172);"/>
            </g>
            <g transform="matrix(1,0,0,1.24257,0,-716.413)">
                <path d="M2558,1626L2559,2265" style="fill:none;stroke-width:16.3px;stroke:rgb(2,226,172);"/>
            </g>
        </g>
        <g transform="matrix(0.178725,0,0,0.178725,2215.56,623.444)">
            <g transform="matrix(14.5944,0,0,14.5944,-4534.73,326.769)">
                <path d="M442,139L486,66L529,140L486,165L442,139L486,121L529,140" style="fill:none;stroke-width:1.26px;stroke:rgb(2,226,172);"/>
            </g>
            <g transform="matrix(14.5944,0,0,14.5944,-4534.73,326.769)">
                <path d="M485,209L485,173L443,148L485,209L529,148L485,173" style="fill:none;stroke-width:1.26px;stroke:rgb(2,226,172);"/>
            </g>
            <g transform="matrix(1,0,0,1,1,467)">
                <path d="M2558,1626L2559,2265" style="fill:none;stroke-width:18.38px;stroke:rgb(2,226,172);"/>
            </g>
            <g transform="matrix(1,0,0,1.24257,0,-716.413)">
                <path d="M2558,1626L2559,2265" style="fill:none;stroke-width:16.3px;stroke:rgb(2,226,172);"/>
            </g>
        </g>
        <g transform="matrix(0.178725,0,0,0.178725,1972.56,608.444)">
            <g transform="matrix(14.5944,0,0,14.5944,-4534.73,326.769)">
                <path d="M442,139L486,66L529,140L486,165L442,139L486,121L529,140" style="fill:none;stroke-width:1.26px;stroke:rgb(2,226,172);"/>
            </g>
            <g transform="matrix(14.5944,0,0,14.5944,-4534.73,326.769)">
                <path d="M485,209L485,173L443,148L485,209L529,148L485,173" style="fill:none;stroke-width:1.26px;stroke:rgb(2,226,172);"/>
            </g>
            <g transform="matrix(1,0,0,1,1,467)">
                <path d="M2558,1626L2559,2265" style="fill:none;stroke-width:18.38px;stroke:rgb(2,226,172);"/>
            </g>
            <g transform="matrix(1,0,0,1.24257,0,-716.413)">
                <path d="M2558,1626L2559,2265" style="fill:none;stroke-width:16.3px;stroke:rgb(2,226,172);"/>
            </g>
        </g>
        <g transform="matrix(0.178725,0,0,0.178725,2099.56,382.444)">
            <g transform="matrix(14.5944,0,0,14.5944,-4534.73,326.769)">
                <path d="M442,139L486,66L529,140L486,165L442,139L486,121L529,140" style="fill:none;stroke-width:1.26px;stroke:rgb(2,226,172);"/>
            </g>
            <g transform="matrix(14.5944,0,0,14.5944,-4534.73,326.769)">
                <path d="M485,209L485,173L443,148L485,209L529,148L485,173" style="fill:none;stroke-width:1.26px;stroke:rgb(2,226,172);"/>
            </g>
            <g transform="matrix(1,0,0,1,1,467)">
                <path d="M2558,1626L2559,2265" style="fill:none;stroke-width:18.38px;stroke:rgb(2,226,172);"/>
            </g>
            <g transform="matrix(1,0,0,1.24257,0,-716.413)">
                <path d="M2558,1626L2559,2265" style="fill:none;stroke-width:16.3px;stroke:rgb(2,226,172);"/>
            </g>
        </g>
        <g transform="matrix(0.178725,0,0,0.178725,2086.56,856.444)">
            <g transform="matrix(14.5944,0,0,14.5944,-4534.73,326.769)">
                <path d="M442,139L486,66L529,140L486,165L442,139L486,121L529,140" style="fill:none;stroke-width:1.26px;stroke:rgb(2,226,172);"/>
            </g>
            <g transform="matrix(14.5944,0,0,14.5944,-4534.73,326.769)">
                <path d="M485,209L485,173L443,148L485,209L529,148L485,173" style="fill:none;stroke-width:1.26px;stroke:rgb(2,226,172);"/>
            </g>
            <g transform="matrix(1,0,0,1,1,467)">
                <path d="M2558,1626L2559,2265" style="fill:none;stroke-width:18.38px;stroke:rgb(2,226,172);"/>
            </g>
            <g transform="matrix(1,0,0,1.24257,0,-716.413)">
                <path d="M2558,1626L2559,2265" style="fill:none;stroke-width:16.3px;stroke:rgb(2,226,172);"/>
            </g>
        </g>
        <g transform="matrix(0.178725,0,0,0.178725,1975.56,161.444)">
            <g transform="matrix(14.5944,0,0,14.5944,-4534.73,326.769)">
                <path d="M442,139L486,66L529,140L486,165L442,139L486,121L529,140" style="fill:none;stroke-width:1.26px;stroke:rgb(2,226,172);"/>
            </g>
            <g transform="matrix(14.5944,0,0,14.5944,-4534.73,326.769)">
                <path d="M485,209L485,173L443,148L485,209L529,148L485,173" style="fill:none;stroke-width:1.26px;stroke:rgb(2,226,172);"/>
            </g>
            <g transform="matrix(1,0,0,1,1,467)">
                <path d="M2558,1626L2559,2265" style="fill:none;stroke-width:18.38px;stroke:rgb(2,226,172);"/>
            </g>
            <g transform="matrix(1,0,0,1.24257,0,-716.413)">
                <path d="M2558,1626L2559,2265" style="fill:none;stroke-width:16.3px;stroke:rgb(2,226,172);"/>
            </g>
        </g>
        <g transform="matrix(0.178725,0,0,0.178725,1848.56,857.444)">
            <g transform="matrix(14.5944,0,0,14.5944,-4534.73,326.769)">
                <path d="M442,139L486,66L529,140L486,165L442,139L486,121L529,140" style="fill:none;stroke-width:1.26px;stroke:rgb(2,226,172);"/>
            </g>
            <g transform="matrix(14.5944,0,0,14.5944,-4534.73,326.769)">
                <path d="M485,209L485,173L443,148L485,209L529,148L485,173" style="fill:none;stroke-width:1.26px;stroke:rgb(2,226,172);"/>
            </g>
            <g transform="matrix(1,0,0,1,1,467)">
                <path d="M2558,1626L2559,2265" style="fill:none;stroke-width:18.38px;stroke:rgb(2,226,172);"/>
            </g>
            <g transform="matrix(1,0,0,1.24257,0,-716.413)">
                <path d="M2558,1626L2559,2265" style="fill:none;stroke-width:16.3px;stroke:rgb(2,226,172);"/>
            </g>
        </g>
    </g>
    <g transform="matrix(1.26812,0,0,1.26812,-539.748,-285.104)">
        <g>
            <g transform="matrix(1,0,0,1,579,-735)">
                <path d="M1908,2397L1902,2552C1865.43,2608.8 1824.66,2596.18 1782,2552L1782,2397C1822.14,2481.67 1864.03,2486.63 1908,2397Z" style="fill:none;stroke-width:3.29px;stroke:rgb(111,63,245);"/>
            </g>
            <g transform="matrix(1,0,0,1,565,-711)">
                <path d="M1796,2529C1735.92,2557.21 1732.61,2582.21 1820,2623C1850.58,2578.26 1879.54,2571.29 1906,2623C2004.76,2575.61 1980.5,2555.34 1924,2529" style="fill:none;stroke-width:3.29px;stroke:rgb(111,63,245);"/>
            </g>
            <g>
                <g transform="matrix(1,0,0,1,565,-711)">
                    <ellipse cx="1865" cy="2634.5" rx="107" ry="9.5" style="fill:none;stroke-width:3.29px;stroke:rgb(111,63,245);"/>
                </g>
                <g transform="matrix(1,0,0,1,565,-687)">
                    <ellipse cx="1865" cy="2634.5" rx="107" ry="9.5" style="fill:none;stroke-width:3.29px;stroke:rgb(111,63,245);"/>
                </g>
                <g transform="matrix(1,0,0,1,565,-661)">
                    <ellipse cx="1865" cy="2634.5" rx="107" ry="9.5" style="fill:none;stroke-width:3.29px;stroke:rgb(111,63,245);"/>
                </g>
                <g transform="matrix(1,0,0,1,565,-642)">
                    <ellipse cx="1865" cy="2634.5" rx="107" ry="9.5" style="fill:none;stroke-width:3.29px;stroke:rgb(111,63,245);"/>
                </g>
                <g transform="matrix(1,0,0,1,565,-622)">
                    <ellipse cx="1865" cy="2634.5" rx="107" ry="9.5" style="fill:none;stroke-width:3.29px;stroke:rgb(111,63,245);"/>
                </g>
                <g transform="matrix(1,0,0,1,565,-602)">
                    <ellipse cx="1865" cy="2634.5" rx="107" ry="9.5" style="fill:none;stroke-width:3.29px;stroke:rgb(111,63,245);"/>
                </g>
                <g transform="matrix(1,0,0,1,565,-582)">
                    <ellipse cx="1865" cy="2634.5" rx="107" ry="9.5" style="fill:none;stroke-width:3.29px;stroke:rgb(111,63,245);"/>
                </g>
                <g transform="matrix(1,0,0,1,565,-560)">
                    <ellipse cx="1865" cy="2634.5" rx="107" ry="9.5" style="fill:none;stroke-width:3.29px;stroke:rgb(111,63,245);"/>
                </g>
                <g transform="matrix(1,0,0,1,565,-538)">
                    <ellipse cx="1865" cy="2634.5" rx="107" ry="9.5" style="fill:none;stroke-width:3.29px;stroke:rgb(111,63,245);"/>
                </g>
                <g transform="matrix(1,0,0,1,565,-538)">
                    <ellipse cx="1865" cy="2634.5" rx="107" ry="9.5" style="fill:none;stroke-width:3.29px;stroke:rgb(111,63,245);"/>
                </g>
                <g transform="matrix(1,0,0,1,565,-518)">
                    <ellipse cx="1865" cy="2634.5" rx="107" ry="9.5" style="fill:none;stroke-width:3.29px;stroke:rgb(111,63,245);"/>
                </g>
                <g transform="matrix(1,0,0,1,565,-497)">
                    <ellipse cx="1865" cy="2634.5" rx="107" ry="9.5" style="fill:none;stroke-width:3.29px;stroke:rgb(111,63,245);"/>
                </g>
                <g transform="matrix(1,0,0,1,565,-473)">
                    <ellipse cx="1865" cy="2634.5" rx="107" ry="9.5" style="fill:none;stroke-width:3.29px;stroke:rgb(111,63,245);"/>
                </g>
                <g transform="matrix(1,0,0,1,565,-450)">
                    <ellipse cx="1865" cy="2634.5" rx="107" ry="9.5" style="fill:none;stroke-width:3.29px;stroke:rgb(111,63,245);"/>
                </g>
                <g transform="matrix(1,0,0,1,565,-431)">
                    <ellipse cx="1865" cy="2634.5" rx="107" ry="9.5" style="fill:none;stroke-width:3.29px;stroke:rgb(111,63,245);"/>
                </g>
                <g transform="matrix(1,0,0,1,565,-411)">
                    <ellipse cx="1865" cy="2634.5" rx="107" ry="9.5" style="fill:none;stroke-width:3.29px;stroke:rgb(111,63,245);"/>
                </g>
            </g>
        </g>
        <g>
            <g transform="matrix(1,0,0,1,565,-711)">
                <path d="M1768,2952L1471,3152L1314,3618L1444,3135L1746,2938L1768,2952Z" style="fill:none;stroke-width:3.29px;stroke:rgb(111,63,245);"/>
            </g>
            <g transform="matrix(1,0,0,1,565,-711)">
                <path d="M1714,2900L1409,2941L1049,3322L1403,2919L1716,2882L1714,2900Z" style="fill:none;stroke-width:3.29px;stroke:rgb(111,63,245);"/>
            </g>
            <g transform="matrix(1,0,0,1,565,-711)">
                <path d="M1728,2860L1450,2686L1144,3053L1462,2659L1741,2847L1728,2860Z" style="fill:none;stroke-width:3.29px;stroke:rgb(111,63,245);"/>
            </g>
            <g transform="matrix(1,0,0,1,565,-711)">
                <path d="M1756,2791L1688,2662L1473,2811L1696,2640L1760,2762L1756,2791Z" style="fill:none;stroke-width:3.29px;stroke:rgb(111,63,245);"/>
            </g>
            <g transform="matrix(-1,0,0,1,4297,-711)">
                <path d="M1768,2952L1471,3152L1314,3618L1444,3135L1746,2938L1768,2952Z" style="fill:none;stroke-width:3.29px;stroke:rgb(111,63,245);"/>
            </g>
            <g transform="matrix(-1,0,0,1,4297,-711)">
                <path d="M1714,2900L1409,2941L1049,3322L1403,2919L1716,2882L1714,2900Z" style="fill:none;stroke-width:3.29px;stroke:rgb(111,63,245);"/>
            </g>
            <g transform="matrix(-1,0,0,1,4297,-711)">
                <path d="M1728,2860L1450,2686L1144,3053L1462,2659L1741,2847L1728,2860Z" style="fill:none;stroke-width:3.29px;stroke:rgb(111,63,245);"/>
            </g>
            <g transform="matrix(-1,0,0,1,4297,-711)">
                <path d="M1756,2791L1688,2662L1473,2811L1696,2640L1760,2762L1756,2791Z" style="fill:none;stroke-width:3.29px;stroke:rgb(111,63,245);"/>
            </g>
            <g transform="matrix(1,0,0,1,565,-711)">
                <path d="M1846,2965L1687,3168L1706,3669L1709,3175L1868,2966L1846,2965Z" style="fill:none;stroke-width:3.29px;stroke:rgb(111,63,245);"/>
            </g>
            <g transform="matrix(-1,0,0,1,4329,-711)">
                <path d="M1846,2965L1687,3168L1706,3669L1709,3175L1868,2966L1846,2965Z" style="fill:none;stroke-width:3.29px;stroke:rgb(111,63,245);"/>
            </g>
        </g>
        <g transform="matrix(0.178725,0,0,0.178725,1845.56,382.444)">
            <g transform="matrix(14.5944,0,0,14.5944,-4534.73,326.769)">
                <path d="M442,139L486,66L529,140L486,165L442,139L486,121L529,140" style="fill:none;stroke-width:1.26px;stroke:rgb(111,63,245);"/>
            </g>
            <g transform="matrix(14.5944,0,0,14.5944,-4534.73,326.769)">
                <path d="M485,209L485,173L443,148L485,209L529,148L485,173" style="fill:none;stroke-width:1.26px;stroke:rgb(111,63,245);"/>
            </g>
            <g transform="matrix(1,0,0,1,1,467)">
                <path d="M2558,1626L2559,2265" style="fill:none;stroke-width:18.38px;stroke:rgb(111,63,245);"/>
            </g>
            <g transform="matrix(1,0,0,1.24257,0,-716.413)">
                <path d="M2558,1626L2559,2265" style="fill:none;stroke-width:16.3px;stroke:rgb(111,63,245);"/>
            </g>
        </g>
        <g transform="matrix(0.178725,0,0,0.178725,1969.56,1104.44)">
            <g transform="matrix(14.5944,0,0,14.5944,-4534.73,326.769)">
                <path d="M442,139L486,66L529,140L486,165L442,139L486,121L529,140" style="fill:none;stroke-width:1.26px;stroke:rgb(111,63,245);"/>
            </g>
            <g transform="matrix(14.5944,0,0,14.5944,-4534.73,326.769)">
                <path d="M485,209L485,173L443,148L485,209L529,148L485,173" style="fill:none;stroke-width:1.26px;stroke:rgb(111,63,245);"/>
            </g>
            <g transform="matrix(1,0,0,1,1,467)">
                <path d="M2558,1626L2559,2265" style="fill:none;stroke-width:18.38px;stroke:rgb(111,63,245);"/>
            </g>
            <g transform="matrix(1,0,0,1.24257,0,-716.413)">
                <path d="M2558,1626L2559,2265" style="fill:none;stroke-width:16.3px;stroke:rgb(111,63,245);"/>
            </g>
        </g>
        <g transform="matrix(0.178725,0,0,0.178725,1718.56,613.444)">
            <g transform="matrix(14.5944,0,0,14.5944,-4534.73,326.769)">
                <path d="M442,139L486,66L529,140L486,165L442,139L486,121L529,140" style="fill:none;stroke-width:1.26px;stroke:rgb(111,63,245);"/>
            </g>
            <g transform="matrix(14.5944,0,0,14.5944,-4534.73,326.769)">
                <path d="M485,209L485,173L443,148L485,209L529,148L485,173" style="fill:none;stroke-width:1.26px;stroke:rgb(111,63,245);"/>
            </g>
            <g transform="matrix(1,0,0,1,1,467)">
                <path d="M2558,1626L2559,2265" style="fill:none;stroke-width:18.38px;stroke:rgb(111,63,245);"/>
            </g>
            <g transform="matrix(1,0,0,1.24257,0,-716.413)">
                <path d="M2558,1626L2559,2265" style="fill:none;stroke-width:16.3px;stroke:rgb(111,63,245);"/>
            </g>
        </g>
        <g transform="matrix(0.178725,0,0,0.178725,2215.56,623.444)">
            <g transform="matrix(14.5944,0,0,14.5944,-4534.73,326.769)">
                <path d="M442,139L486,66L529,140L486,165L442,139L486,121L529,140" style="fill:none;stroke-width:1.26px;stroke:rgb(111,63,245);"/>
            </g>
            <g transform="matrix(14.5944,0,0,14.5944,-4534.73,326.769)">
                <path d="M485,209L485,173L443,148L485,209L529,148L485,173" style="fill:none;stroke-width:1.26px;stroke:rgb(111,63,245);"/>
            </g>
            <g transform="matrix(1,0,0,1,1,467)">
                <path d="M2558,1626L2559,2265" style="fill:none;stroke-width:18.38px;stroke:rgb(111,63,245);"/>
            </g>
            <g transform="matrix(1,0,0,1.24257,0,-716.413)">
                <path d="M2558,1626L2559,2265" style="fill:none;stroke-width:16.3px;stroke:rgb(111,63,245);"/>
            </g>
        </g>
        <g transform="matrix(0.178725,0,0,0.178725,1972.56,608.444)">
            <g transform="matrix(14.5944,0,0,14.5944,-4534.73,326.769)">
                <path d="M442,139L486,66L529,140L486,165L442,139L486,121L529,140" style="fill:none;stroke-width:1.26px;stroke:rgb(111,63,245);"/>
            </g>
            <g transform="matrix(14.5944,0,0,14.5944,-4534.73,326.769)">
                <path d="M485,209L485,173L443,148L485,209L529,148L485,173" style="fill:none;stroke-width:1.26px;stroke:rgb(111,63,245);"/>
            </g>
            <g transform="matrix(1,0,0,1,1,467)">
                <path d="M2558,1626L2559,2265" style="fill:none;stroke-width:18.38px;stroke:rgb(111,63,245);"/>
            </g>
            <g transform="matrix(1,0,0,1.24257,0,-716.413)">
                <path d="M2558,1626L2559,2265" style="fill:none;stroke-width:16.3px;stroke:rgb(111,63,245);"/>
            </g>
        </g>
        <g transform="matrix(0.178725,0,0,0.178725,2099.56,382.444)">
            <g transform="matrix(14.5944,0,0,14.5944,-4534.73,326.769)">
                <path d="M442,139L486,66L529,140L486,165L442,139L486,121L529,140" style="fill:none;stroke-width:1.26px;stroke:rgb(111,63,245);"/>
            </g>
            <g transform="matrix(14.5944,0,0,14.5944,-4534.73,326.769)">
                <path d="M485,209L485,173L443,148L485,209L529,148L485,173" style="fill:none;stroke-width:1.26px;stroke:rgb(111,63,245);"/>
            </g>
            <g transform="matrix(1,0,0,1,1,467)">
                <path d="M2558,1626L2559,2265" style="fill:none;stroke-width:18.38px;stroke:rgb(111,63,245);"/>
            </g>
            <g transform="matrix(1,0,0,1.24257,0,-716.413)">
                <path d="M2558,1626L2559,2265" style="fill:none;stroke-width:16.3px;stroke:rgb(111,63,245);"/>
            </g>
        </g>
        <g transform="matrix(0.178725,0,0,0.178725,2086.56,856.444)">
            <g transform="matrix(14.5944,0,0,14.5944,-4534.73,326.769)">
                <path d="M442,139L486,66L529,140L486,165L442,139L486,121L529,140" style="fill:none;stroke-width:1.26px;stroke:rgb(111,63,245);"/>
            </g>
            <g transform="matrix(14.5944,0,0,14.5944,-4534.73,326.769)">
                <path d="M485,209L485,173L443,148L485,209L529,148L485,173" style="fill:none;stroke-width:1.26px;stroke:rgb(111,63,245);"/>
            </g>
            <g transform="matrix(1,0,0,1,1,467)">
                <path d="M2558,1626L2559,2265" style="fill:none;stroke-width:18.38px;stroke:rgb(111,63,245);"/>
            </g>
            <g transform="matrix(1,0,0,1.24257,0,-716.413)">
                <path d="M2558,1626L2559,2265" style="fill:none;stroke-width:16.3px;stroke:rgb(111,63,245);"/>
            </g>
        </g>
        <g transform="matrix(0.178725,0,0,0.178725,1975.56,161.444)">
            <g transform="matrix(14.5944,0,0,14.5944,-4534.73,326.769)">
                <path d="M442,139L486,66L529,140L486,165L442,139L486,121L529,140" style="fill:none;stroke-width:1.26px;stroke:rgb(111,63,245);"/>
            </g>
            <g transform="matrix(14.5944,0,0,14.5944,-4534.73,326.769)">
                <path d="M485,209L485,173L443,148L485,209L529,148L485,173" style="fill:none;stroke-width:1.26px;stroke:rgb(111,63,245);"/>
            </g>
            <g transform="matrix(1,0,0,1,1,467)">
                <path d="M2558,1626L2559,2265" style="fill:none;stroke-width:18.38px;stroke:rgb(111,63,245);"/>
            </g>
            <g transform="matrix(1,0,0,1.24257,0,-716.413)">
                <path d="M2558,1626L2559,2265" style="fill:none;stroke-width:16.3px;stroke:rgb(111,63,245);"/>
            </g>
        </g>
        <g transform="matrix(0.178725,0,0,0.178725,1848.56,857.444)">
            <g transform="matrix(14.5944,0,0,14.5944,-4534.73,326.769)">
                <path d="M442,139L486,66L529,140L486,165L442,139L486,121L529,140" style="fill:none;stroke-width:1.26px;stroke:rgb(111,63,245);"/>
            </g>
            <g transform="matrix(14.5944,0,0,14.5944,-4534.73,326.769)">
                <path d="M485,209L485,173L443,148L485,209L529,148L485,173" style="fill:none;stroke-width:1.26px;stroke:rgb(111,63,245);"/>
            </g>
            <g transform="matrix(1,0,0,1,1,467)">
                <path d="M2558,1626L2559,2265" style="fill:none;stroke-width:18.38px;stroke:rgb(111,63,245);"/>
            </g>
            <g transform="matrix(1,0,0,1.24257,0,-716.413)">
                <path d="M2558,1626L2559,2265" style="fill:none;stroke-width:16.3px;stroke:rgb(111,63,245);"/>
            </g>
        </g>
    </g>
    <g transform="matrix(0.675682,0,0,0.675682,1010.89,1330.17)">
        <text x="641px" y="4206.11px" style="font-family:'ArialMT', 'Arial', sans-serif;font-size:787.523px;fill:none;stroke-width:6.17px;stroke-linecap:butt;stroke:rgb(255,204,0);">ethereum</text>
        <text x="1473.13px" y="5019.4px" style="font-family:'ArialMT', 'Arial', sans-serif;font-size:787.523px;fill:none;stroke-width:6.17px;stroke-linecap:butt;stroke:rgb(255,204,0);">virus</text>
    </g>
    <g transform="matrix(0.675682,0,0,0.675682,1019.89,1330.17)">
        <text x="641px" y="4206.11px" style="font-family:'ArialMT', 'Arial', sans-serif;font-size:787.523px;fill:none;stroke-width:6.17px;stroke-linecap:butt;stroke:rgb(2,226,172);">ethereum</text>
        <text x="1473.13px" y="5019.4px" style="font-family:'ArialMT', 'Arial', sans-serif;font-size:787.523px;fill:none;stroke-width:6.17px;stroke-linecap:butt;stroke:rgb(2,226,172);">virus</text>
    </g>
    <g transform="matrix(0.675682,0,0,0.675682,1032.89,1334.17)">
        <text x="641px" y="4206.11px" style="font-family:'ArialMT', 'Arial', sans-serif;font-size:787.523px;fill:none;stroke-width:6.17px;stroke-linecap:butt;stroke:rgb(111,63,245);">ethereum</text>
        <text x="1473.13px" y="5019.4px" style="font-family:'ArialMT', 'Arial', sans-serif;font-size:787.523px;fill:none;stroke-width:6.17px;stroke-linecap:butt;stroke:rgb(111,63,245);">virus</text>
    </g>
</svg>
